<?xml version="1.0" encoding="iso-8859-1"?>
<!-- Uploaded to: SVG Repo, www.svgrepo.com, Generator: SVG Repo Mixer Tools -->
<svg version="1.1" id="Layer_1" xmlns="http://www.w3.org/2000/svg" xmlns:xlink="http://www.w3.org/1999/xlink" 
	 viewBox="0 0 512 512" xml:space="preserve">
<path style="fill:#91DC5A;" d="M438.521,39.224v381.777c0,21.631-17.593,39.224-39.224,39.224h-21.965v12.552
	c0,21.631-17.593,39.224-39.224,39.224H174.938c-21.631,0-39.224-17.593-39.224-39.224v-12.552h-23.011
	c-21.631,0-39.224-17.593-39.224-39.224V39.224C73.479,17.593,91.072,0,112.703,0h286.595C420.928,0,438.521,17.593,438.521,39.224z
	"/>
<rect x="31.117" y="144.343" style="fill:#ACABB1;" width="33.471" height="58.574"/>
<g>
	<path style="fill:#FFFFFF;" d="M249.128,231.158c-3.786,24.549-25.061,43.408-50.656,43.408s-46.87-18.859-50.656-43.408H249.128z"
		/>
	<path style="fill:#FFFFFF;" d="M364.184,231.158c-3.786,24.549-25.061,43.408-50.656,43.408c-25.595,0-46.87-18.859-50.656-43.408
		H364.184z"/>
</g>
<g>
	<path style="fill:#4E901E;" d="M151.403,363.996v96.229h-38.701c-21.631,0-39.224-17.593-39.224-39.224v-93.614h40.27v6.203
		c0,16.683,13.378,30.406,29.81,30.406H151.403z"/>
	<path style="fill:#4E901E;" d="M438.521,421.001v-93.614h-15.689h-23.534v6.203c0,16.683-13.378,30.406-29.81,30.406h-7.845v96.229
		h15.689h21.965C420.928,460.225,438.521,442.632,438.521,421.001z"/>
</g>
<rect x="135.714" y="428.846" style="fill:#91DC5A;" width="15.689" height="31.379"/>
<path style="fill:#57565C;" d="M422.831,39.224V90.57l-36.745,21.181l-43.544-25.103L299,111.751l-43.533-25.103l-43.544,25.103
	L168.39,86.648l-43.533,25.103L89.169,91.177V39.224c0-12.98,10.554-23.534,23.534-23.534h286.595
	C412.278,15.689,422.831,26.243,422.831,39.224z"/>
<rect x="446.366" y="144.343" style="fill:#ACABB1;" width="34.517" height="58.574"/>
<path d="M399.297,0H112.703C91.074,0,73.479,17.595,73.479,39.224v381.777c0,21.628,17.595,39.224,39.224,39.224h9.414v-15.689
	h-9.414c-12.977,0-23.534-10.557-23.534-23.534V109.285l35.691,20.58l43.531-25.103l43.536,25.103l43.537-25.103l43.539,25.103
	l43.538-25.103l43.544,25.103l36.745-21.184v312.32c0,12.977-10.557,23.534-23.534,23.534h-8.368v15.689h8.368
	c21.628,0,39.224-17.595,39.224-39.224V39.224C438.521,17.595,420.926,0,399.297,0z M386.087,111.754l-43.545-25.103l-43.537,25.103
	l-43.539-25.103l-43.537,25.103L168.391,86.65l-43.531,25.103L89.169,91.174v-51.95c0-12.977,10.557-23.534,23.534-23.534h286.595
	c12.977,0,23.534,10.557,23.534,23.534V90.57L386.087,111.754z"/>
<rect x="256.523" y="188.274" width="26.149" height="15.689"/>
<path d="M97.536,195.596v35.563h50.284c3.787,24.55,25.058,43.408,50.652,43.408s46.864-18.858,50.652-43.408h13.752
	c3.787,24.55,25.058,43.408,50.652,43.408s46.864-18.858,50.652-43.408h50.284v-42.885H293.132v15.689h105.642v11.506H113.226
	v-19.873H97.536z M198.472,258.876c-16.913,0-31.097-11.872-34.68-27.718h69.36C229.568,247.005,215.385,258.876,198.472,258.876z
	 M313.528,258.876c-16.913,0-31.097-11.872-34.68-27.718h69.36C344.625,247.005,330.441,258.876,313.528,258.876z"/>
<polygon points="246.586,353.536 282.149,353.536 282.149,337.847 262.276,337.847 262.276,298.1 246.586,298.1 "/>
<rect x="246.586" y="261.491" width="15.689" height="26.149"/>
<path d="M414.987,333.587v-6.199h-15.689v6.199c0,16.684-13.373,30.257-29.81,30.257h-7.845v47.221h15.689V378.85
	C398.695,375.084,414.987,356.22,414.987,333.587z"/>
<path d="M361.643,472.776c0,12.977-10.557,23.534-23.534,23.534H174.938c-12.977,0-23.534-10.557-23.534-23.534v-43.931h-15.689
	v43.931c0,21.628,17.595,39.224,39.224,39.224h163.171c21.628,0,39.224-17.595,39.224-39.224v-43.931h-15.689V472.776z"/>
<path d="M135.714,378.85v32.215h15.689v-47.221h-7.845c-16.437,0-29.81-13.573-29.81-30.257v-6.199H98.059v6.199
	C98.059,356.22,114.351,375.084,135.714,378.85z"/>
<rect x="188.012" y="392.76" width="139.113" height="15.689"/>
<rect x="237.696" y="418.909" width="73.218" height="15.689"/>
<rect x="201.087" y="418.909" width="26.149" height="15.689"/>
<polygon points="446.366,144.343 446.366,160.033 465.193,160.033 465.193,187.228 446.366,187.228 446.366,202.917 
	480.883,202.917 480.883,144.343 "/>
<polygon points="31.117,202.917 64.588,202.917 64.588,187.228 46.807,187.228 46.807,160.033 64.588,160.033 64.588,144.343 
	31.117,144.343 "/>
</svg>